<svg width="24" height="24" viewBox="0 0 24 24" fill="none" xmlns="http://www.w3.org/2000/svg">
<path fill-rule="evenodd" clip-rule="evenodd" d="M12 24C15.1826 24 18.2348 22.7357 20.4853 20.4853C22.7357 18.2348 24 15.1826 24 12C24 8.8174 22.7357 5.76516 20.4853 3.51472C18.2348 1.26428 15.1826 0 12 0C8.8174 0 5.76516 1.26428 3.51472 3.51472C1.26428 5.76516 0 8.8174 0 12C0 15.1826 1.26428 18.2348 3.51472 20.4853C5.76516 22.7357 8.8174 24 12 24ZM6.33 6.33C6.54094 6.11932 6.82687 6.00099 7.125 6.00099C7.42313 6.00099 7.70906 6.11932 7.92 6.33L12 10.41L16.08 6.33C16.183 6.21947 16.3072 6.13082 16.4452 6.06933C16.5832 6.00784 16.7322 5.97478 16.8832 5.97211C17.0343 5.96945 17.1843 5.99723 17.3244 6.05382C17.4645 6.1104 17.5917 6.19461 17.6986 6.30144C17.8054 6.40827 17.8896 6.53552 17.9462 6.6756C18.0028 6.81569 18.0306 6.96573 18.0279 7.11678C18.0252 7.26784 17.9922 7.41681 17.9307 7.55481C17.8692 7.69281 17.7805 7.81701 17.67 7.92L13.59 12L17.67 16.08C17.7805 16.183 17.8692 16.3072 17.9307 16.4452C17.9922 16.5832 18.0252 16.7322 18.0279 16.8832C18.0306 17.0343 18.0028 17.1843 17.9462 17.3244C17.8896 17.4645 17.8054 17.5917 17.6986 17.6986C17.5917 17.8054 17.4645 17.8896 17.3244 17.9462C17.1843 18.0028 17.0343 18.0306 16.8832 18.0279C16.7322 18.0252 16.5832 17.9922 16.4452 17.9307C16.3072 17.8692 16.183 17.7805 16.08 17.67L12 13.59L7.92 17.67C7.70674 17.8687 7.42467 17.9769 7.13322 17.9718C6.84176 17.9666 6.56369 17.8486 6.35757 17.6424C6.15145 17.4363 6.03338 17.1582 6.02824 16.8668C6.0231 16.5753 6.13128 16.2933 6.33 16.08L10.41 12L6.33 7.92C6.11932 7.70906 6.00099 7.42313 6.00099 7.125C6.00099 6.82687 6.11932 6.54094 6.33 6.33Z" fill="currentColor"/>
</svg>
