<svg width="24" height="24" viewBox="0 0 24 24" fill="none" xmlns="http://www.w3.org/2000/svg">
<path d="M18.6899 5.32071C18.5917 5.22227 18.475 5.14417 18.3465 5.09089C18.2181 5.0376 18.0803 5.01017 17.9413 5.01017C17.8022 5.01017 17.6645 5.0376 17.536 5.09089C17.4076 5.14417 17.2909 5.22227 17.1926 5.32071L12 10.5027L6.80736 5.31009C6.70905 5.21178 6.59233 5.1338 6.46388 5.08059C6.33543 5.02738 6.19776 5 6.05873 5C5.91969 5 5.78202 5.02738 5.65357 5.08059C5.52512 5.1338 5.40841 5.21178 5.31009 5.31009C5.21178 5.40841 5.1338 5.52512 5.08059 5.65357C5.02738 5.78202 5 5.91969 5 6.05873C5 6.19776 5.02738 6.33543 5.08059 6.46388C5.1338 6.59233 5.21178 6.70905 5.31009 6.80736L10.5027 12L5.31009 17.1926C5.21178 17.291 5.1338 17.4077 5.08059 17.5361C5.02738 17.6646 5 17.8022 5 17.9413C5 18.0803 5.02738 18.218 5.08059 18.3464C5.1338 18.4749 5.21178 18.5916 5.31009 18.6899C5.40841 18.7882 5.52512 18.8662 5.65357 18.9194C5.78202 18.9726 5.91969 19 6.05873 19C6.19776 19 6.33543 18.9726 6.46388 18.9194C6.59233 18.8662 6.70905 18.7882 6.80736 18.6899L12 13.4973L17.1926 18.6899C17.291 18.7882 17.4077 18.8662 17.5361 18.9194C17.6646 18.9726 17.8022 19 17.9413 19C18.0803 19 18.218 18.9726 18.3464 18.9194C18.4749 18.8662 18.5916 18.7882 18.6899 18.6899C18.7882 18.5916 18.8662 18.4749 18.9194 18.3464C18.9726 18.218 19 18.0803 19 17.9413C19 17.8022 18.9726 17.6646 18.9194 17.5361C18.8662 17.4077 18.7882 17.291 18.6899 17.1926L13.4973 12L18.6899 6.80736C19.0934 6.40384 19.0934 5.72423 18.6899 5.32071Z" fill="currentColor"/>
</svg>
