<svg width="20" height="20" viewBox="0 0 20 20" fill="none" xmlns="http://www.w3.org/2000/svg">
<path d="M8.51078 3.17094C8.8898 1.60969 11.1102 1.60969 11.4892 3.17094C11.7341 4.17949 12.8896 4.65811 13.7758 4.11809C15.1478 3.28212 16.7179 4.85218 15.8819 6.22416C15.3419 7.11045 15.8205 8.26593 16.8291 8.51078C18.3903 8.8898 18.3903 11.1102 16.8291 11.4892C15.8205 11.7341 15.3419 12.8896 15.8819 13.7758C16.7179 15.1478 15.1478 16.7179 13.7758 15.8819C12.8896 15.3419 11.7341 15.8205 11.4892 16.8291C11.1102 18.3903 8.8898 18.3903 8.51078 16.8291C8.26594 15.8205 7.11045 15.3419 6.22417 15.8819C4.85218 16.7179 3.28212 15.1478 4.11809 13.7758C4.65811 12.8896 4.17949 11.7341 3.17094 11.4892C1.60969 11.1102 1.60969 8.8898 3.17094 8.51078C4.17949 8.26593 4.65811 7.11045 4.11809 6.22416C3.28212 4.85218 4.85218 3.28212 6.22416 4.11809C7.11045 4.65811 8.26594 4.17949 8.51078 3.17094Z" stroke="currentColor" stroke-width="1.2" stroke-linecap="round" stroke-linejoin="round"/>
<path d="M12.6667 10C12.6667 11.4728 11.4728 12.6667 10 12.6667C8.52724 12.6667 7.33333 11.4728 7.33333 10C7.33333 8.52724 8.52724 7.33333 10 7.33333C11.4728 7.33333 12.6667 8.52724 12.6667 10Z" stroke="currentColor" stroke-width="1.2" stroke-linecap="round" stroke-linejoin="round"/>
</svg>
