<svg width="20" height="20" viewBox="0 0 20 20" fill="none" xmlns="http://www.w3.org/2000/svg">
<path d="M10.006 18.2684L13.4772 14.9134C13.6563 14.7403 13.8653 14.6537 14.1042 14.6537C14.3431 14.6537 14.5521 14.7403 14.7313 14.9134C14.9104 15.0866 15 15.2924 15 15.5307C15 15.7691 14.9104 15.9746 14.7313 16.1472L11.2825 19.5022C10.9391 19.8341 10.5136 20 10.006 20C9.49842 20 9.07293 19.8341 8.72954 19.5022L5.2584 16.1472C5.07924 15.974 4.99325 15.7685 5.00041 15.5307C5.00758 15.2929 5.10104 15.0872 5.28079 14.9134C5.46055 14.7397 5.67344 14.6531 5.91948 14.6537C6.16552 14.6543 6.37812 14.7408 6.55728 14.9134L10.006 18.2684ZM10.006 1.7316L6.55728 5.06494C6.37812 5.2381 6.16911 5.32121 5.93023 5.31429C5.69136 5.30736 5.48234 5.22424 5.30319 5.06494C5.12403 4.89178 5.03087 4.68629 5.0237 4.44848C5.01654 4.21068 5.10223 4.00491 5.28079 3.83117L8.72954 0.497836C9.07293 0.165945 9.49842 0 10.006 0C10.5136 0 10.9391 0.165945 11.2825 0.497836L14.7313 3.83117C14.9104 4.00433 14.9964 4.2101 14.9892 4.44848C14.9821 4.68687 14.8886 4.89235 14.7089 5.06494C14.5297 5.22367 14.3207 5.30678 14.0818 5.31429C13.8429 5.32179 13.6339 5.23867 13.4548 5.06494L10.006 1.7316Z" fill="currentColor"/>
</svg>
