<svg width="20" height="20" viewBox="0 0 20 20" fill="none" xmlns="http://www.w3.org/2000/svg">
<path d="M10.006 16.2514L13.4772 12.8634C13.6563 12.6885 13.8653 12.6011 14.1042 12.6011C14.3431 12.6011 14.5521 12.6885 14.7313 12.8634C14.9104 13.0383 15 13.246 15 13.4868C15 13.7275 14.9104 13.935 14.7313 14.1093L11.2825 17.4973C10.9391 17.8324 10.5136 18 10.006 18C9.49842 18 9.07293 17.8324 8.72954 17.4973L5.2584 14.1093C5.07924 13.9344 4.99325 13.7269 5.00041 13.4868C5.00758 13.2466 5.10104 13.0388 5.28079 12.8634C5.46055 12.6879 5.67344 12.6005 5.91948 12.6011C6.16552 12.6017 6.37812 12.6891 6.55728 12.8634L10.006 16.2514ZM10.006 3.74863L6.55728 7.11475C6.37812 7.28962 6.16911 7.37355 5.93023 7.36656C5.69136 7.35956 5.48234 7.27563 5.30319 7.11475C5.12403 6.93989 5.03087 6.73239 5.0237 6.49224C5.01654 6.25209 5.10223 6.0443 5.28079 5.86885L8.72954 2.50273C9.07293 2.16758 9.49842 2 10.006 2C10.5136 2 10.9391 2.16758 11.2825 2.50273L14.7313 5.86885C14.9104 6.04372 14.9964 6.25151 14.9893 6.49224C14.9821 6.73297 14.8886 6.94047 14.7089 7.11475C14.5297 7.27505 14.3207 7.35898 14.0818 7.36656C13.8429 7.37414 13.6339 7.2902 13.4548 7.11475L10.006 3.74863Z" fill="currentColor"/>
</svg>
