<svg width="24" height="24" viewBox="0 0 24 24" fill="none" xmlns="http://www.w3.org/2000/svg">
<path fill-rule="evenodd" clip-rule="evenodd" d="M12 2C9.34784 2 6.8043 3.05357 4.92893 4.92893C3.05357 6.8043 2 9.34784 2 12C2 14.6522 3.05357 17.1957 4.92893 19.0711C6.8043 20.9464 9.34784 22 12 22C14.6522 22 17.1957 20.9464 19.0711 19.0711C20.9464 17.1957 22 14.6522 22 12C22 9.34784 20.9464 6.8043 19.0711 4.92893C17.1957 3.05357 14.6522 2 12 2ZM7 11.2857C6.60551 11.2857 6.28571 11.6055 6.28571 12C6.28571 12.3945 6.60551 12.7143 7 12.7143H17C17.3945 12.7143 17.7143 12.3945 17.7143 12C17.7143 11.6055 17.3945 11.2857 17 11.2857H7Z" fill="currentColor"/>
</svg>
